<svg width="27" height="43" viewBox="0 0 27 43" fill="none" xmlns="http://www.w3.org/2000/svg">
<path fill-rule="evenodd" clip-rule="evenodd" d="M0 5.29131C0 3.88796 0.43884 2.5421 1.21998 1.54979C2.00112 0.557475 3.06057 0 4.16527 0H22.492C23.5965 0.000420899 24.6556 0.558082 25.4365 1.55035C26.2173 2.54262 26.656 3.88824 26.656 5.29131V11.1112C26.656 11.3918 26.5683 11.6609 26.4121 11.8593C26.2559 12.0577 26.0441 12.1691 25.8232 12.1691C25.6023 12.1691 25.3905 12.0577 25.2343 11.8593C25.0781 11.6609 24.9904 11.3918 24.9904 11.1112V5.29131C24.9904 4.44934 24.7271 3.64186 24.2584 3.04651C23.7898 2.45115 23.1541 2.11668 22.4914 2.11668H4.16465C3.50186 2.11668 2.86622 2.45115 2.39756 3.04651C1.9289 3.64186 1.66561 4.44934 1.66561 5.29131V37.0376C1.66561 37.8795 1.9289 38.687 2.39756 39.2823C2.86622 39.8777 3.50186 40.2122 4.16465 40.2122H22.4914C23.1541 40.2122 23.7898 39.8777 24.2584 39.2823C24.7271 38.687 24.9904 37.8795 24.9904 37.0376V31.2169C24.9904 30.9363 25.0781 30.6672 25.2343 30.4688C25.3905 30.2704 25.6023 30.1589 25.8232 30.1589C26.0441 30.1589 26.2559 30.2704 26.4121 30.4688C26.5683 30.6672 26.656 30.9363 26.656 31.2169V37.0376C26.6558 38.4406 26.217 39.7862 25.436 40.7783C24.655 41.7704 23.5958 42.3279 22.4914 42.3281H4.16465C3.06028 42.3276 2.00124 41.7701 1.22038 40.778C0.439532 39.7859 0.000790015 38.4405 0.000624417 37.0376L0 5.29131Z" fill="#3F3F3F"/>
<path fill-rule="evenodd" clip-rule="evenodd" d="M21.0694 15.1244C20.7445 15.5378 20.7445 16.2077 21.0694 16.6212L23.8127 20.1053H10.8296C10.6086 20.1053 10.3967 20.2168 10.2405 20.4153C10.0843 20.6138 9.99648 20.883 9.99648 21.1637C9.99648 21.4444 10.0843 21.7136 10.2405 21.912C10.3967 22.1105 10.6086 22.222 10.8296 22.222H23.8121L21.0694 25.7062C20.992 25.8044 20.9307 25.921 20.8888 26.0494C20.8469 26.1778 20.8253 26.3153 20.8253 26.4543C20.8253 26.5933 20.8468 26.7309 20.8886 26.8593C20.9304 26.9877 20.9918 27.1043 21.0691 27.2026C21.1464 27.3009 21.2382 27.3789 21.3393 27.4321C21.4403 27.4853 21.5486 27.5127 21.658 27.5127C21.7674 27.5128 21.8757 27.4854 21.9768 27.4323C22.0779 27.3791 22.1697 27.3012 22.2471 27.203L26.4124 21.9125C26.7372 21.4998 26.7372 20.8292 26.4124 20.4157L22.2471 15.1251C22.1697 15.0268 22.0779 14.9488 21.9768 14.8956C21.8757 14.8423 21.7674 14.8149 21.6579 14.8149C21.5485 14.8149 21.4401 14.8423 21.3391 14.8956C21.238 14.9488 21.1461 15.0268 21.0688 15.1251L21.0694 15.1244Z" fill="#3F3F3F"/>
</svg>
