<svg width="24" height="24" viewBox="0 0 24 24" fill="none" xmlns="http://www.w3.org/2000/svg">
<path d="M22.7368 4H21.4737V2.66667C21.4737 2.31305 21.3406 1.97391 21.1037 1.72386C20.8668 1.47381 20.5455 1.33334 20.2105 1.33334C19.8755 1.33334 19.5542 1.47381 19.3173 1.72386C19.0804 1.97391 18.9474 2.31305 18.9474 2.66667V4H17.6842C17.3492 4 17.0279 4.14048 16.791 4.39053C16.5541 4.64057 16.4211 4.97971 16.4211 5.33333C16.4211 5.68696 16.5541 6.0261 16.791 6.27614C17.0279 6.52619 17.3492 6.66667 17.6842 6.66667H18.9474V8C18.9474 8.35362 19.0804 8.69276 19.3173 8.94281C19.5542 9.19286 19.8755 9.33333 20.2105 9.33333C20.5455 9.33333 20.8668 9.19286 21.1037 8.94281C21.3406 8.69276 21.4737 8.35362 21.4737 8V6.66667H22.7368C23.0719 6.66667 23.3931 6.52619 23.63 6.27614C23.8669 6.0261 24 5.68696 24 5.33333C24 4.97971 23.8669 4.64057 23.63 4.39053C23.3931 4.14048 23.0719 4 22.7368 4ZM8.8421 10.6667C9.84142 10.6667 10.8183 10.3539 11.6492 9.76784C12.4801 9.1818 13.1277 8.34885 13.5101 7.37431C13.8925 6.39977 13.9926 5.32742 13.7977 4.29285C13.6027 3.25829 13.1215 2.30798 12.4149 1.5621C11.7082 0.816219 10.8079 0.308269 9.82782 0.102481C8.84771 -0.103307 7.83179 0.00231083 6.90855 0.405978C5.9853 0.809645 5.19619 1.49323 4.641 2.37029C4.0858 3.24736 3.78947 4.2785 3.78947 5.33333C3.78947 6.74782 4.3218 8.10438 5.26935 9.10457C6.21691 10.1048 7.50206 10.6667 8.8421 10.6667ZM16.4211 24C16.7561 24 17.0774 23.8595 17.3142 23.6095C17.5511 23.3594 17.6842 23.0203 17.6842 22.6667C17.6842 20.1913 16.7526 17.8173 15.0944 16.067C13.4362 14.3167 11.1872 13.3333 8.8421 13.3333C6.49703 13.3333 4.24801 14.3167 2.58979 16.067C0.931576 17.8173 3.49443e-08 20.1913 0 22.6667C0 23.0203 0.133082 23.3594 0.36997 23.6095C0.606858 23.8595 0.928148 24 1.26316 24" fill="white"/>
</svg>
